<?xml version="1.0" standalone="no"?>
<!DOCTYPE svg PUBLIC "-//W3C//DTD SVG 20010904//EN"
 "http://www.w3.org/TR/2001/REC-SVG-20010904/DTD/svg10.dtd">
<svg version="1.0" xmlns="http://www.w3.org/2000/svg"
 width="1080.000000pt" height="1080.000000pt" viewBox="0 0 1080.000000 1080.000000"
 preserveAspectRatio="xMidYMid meet">

<g transform="translate(0.000000,1080.000000) scale(0.100000,-0.100000)"
fill="#000000" stroke="none">
<path d="M4737 7998 c-9 -7 -258 -510 -553 -1118 -294 -608 -767 -1582 -1050
-2165 -450 -929 -514 -1065 -508 -1093 l7 -32 1059 0 c1003 0 1059 1 1056 18
-1 9 1 23 5 29 5 8 -115 310 -294 740 -166 401 -304 736 -306 746 -5 16 24 17
502 17 426 0 509 2 521 14 12 12 14 125 14 742 0 401 4 724 8 719 7 -8 735
-1636 789 -1763 l14 -33 -466 3 -465 3 0 -26 c0 -14 212 -471 471 -1015 260
-544 472 -990 473 -991 1 -1 14 1 30 4 l28 6 -7 413 -7 414 1056 0 c906 0
1057 2 1062 14 3 8 -138 295 -314 638 -307 597 -1419 2769 -1746 3411 -87 169
-162 305 -167 301 -5 -3 -9 0 -9 5 0 17 -1181 15 -1203 -1z m1468 -570 c844
-1648 1531 -2990 1711 -3340 112 -219 204 -400 204 -403 0 -3 -467 -5 -1038
-5 -977 0 -1040 -1 -1054 -17 -12 -16 -13 -63 -6 -333 5 -173 7 -349 6 -390
l-3 -75 -456 955 -455 955 457 3 c371 2 459 5 468 16 9 10 -81 221 -407 952
-439 986 -419 946 -469 929 -10 -3 -13 -161 -13 -745 l0 -740 -516 0 c-427 0
-518 -2 -529 -14 -12 -12 31 -123 296 -762 171 -412 314 -757 316 -766 5 -17
-49 -18 -1030 -18 l-1036 0 56 113 c60 122 1160 2389 1655 3412 171 352 330
679 354 728 l44 87 584 0 583 0 278 -542z"/>
</g>
</svg>
